<?xml version="1.0" standalone="no"?><!DOCTYPE svg PUBLIC "-//W3C//DTD SVG 1.1//EN" "http://www.w3.org/Graphics/SVG/1.1/DTD/svg11.dtd"><svg t="1636442111494" class="icon" viewBox="0 0 1024 1024" version="1.1" xmlns="http://www.w3.org/2000/svg" p-id="13752" xmlns:xlink="http://www.w3.org/1999/xlink" width="128" height="128"><defs><style type="text/css"></style></defs><path d="M721.024 649.28a8.192 8.192 0 0 1-13.184-6.464V381.184a8.192 8.192 0 0 1 13.184-6.464l170.752 130.752a8.192 8.192 0 0 1 0 13.056l-170.752 130.752zM120.832 126.08h782.336c4.864 0 8.832 3.2 8.832 7.168v57.6c0 4.032-4.032 7.232-8.832 7.232H120.832c-4.864 0-8.832-3.2-8.832-7.232v-57.6c0-3.968 4.032-7.168 8.832-7.168z m2.176 459.968H613.12c4.928 0 8.96 3.2 8.96 7.232v57.6c0 3.968-3.968 7.168-8.96 7.168H123.008c-4.928 0-8.96-3.2-8.96-7.168v-57.6c0-3.968 3.968-7.232 8.96-7.232z m-2.176 240h782.336c4.864 0 8.832 3.2 8.832 7.232v57.6c0 3.968-4.032 7.168-8.832 7.168H120.832c-4.864 0-8.832-3.2-8.832-7.168v-57.6c0-3.968 4.032-7.232 8.832-7.232z m2.176-459.968H613.12c4.928 0 8.96 3.2 8.96 7.168v57.6c0 4.032-3.968 7.232-8.96 7.232H123.008c-4.928 0-8.96-3.2-8.96-7.232v-57.6c0-3.968 3.968-7.168 8.96-7.168z" p-id="13753"></path></svg>